<svg width="115" height="115" viewBox="0 0 115 115" fill="none" xmlns="http://www.w3.org/2000/svg">
<g filter="url(#filter0_i_16_22)">
<path d="M54.6468 8.78114C55.5449 6.01721 59.4551 6.01722 60.3532 8.78115L69.736 37.6586C70.1376 38.8946 71.2895 39.7315 72.5892 39.7315H102.953C105.859 39.7315 107.067 43.4504 104.716 45.1586L80.1515 63.0058C79.1 63.7697 78.66 65.1238 79.0616 66.3599L88.4445 95.2373C89.3425 98.0013 86.1791 100.3 83.828 98.5914L59.2634 80.7442C58.2119 79.9803 56.7881 79.9803 55.7366 80.7442L31.172 98.5914C28.8209 100.3 25.6575 98.0013 26.5555 95.2373L35.9384 66.3599C36.34 65.1238 35.9 63.7697 34.8485 63.0058L10.2839 45.1586C7.9328 43.4504 9.14113 39.7315 12.0473 39.7315H42.4108C43.7105 39.7315 44.8624 38.8946 45.264 37.6586L54.6468 8.78114Z" fill="#52BFD8"/>
</g>
<g filter="url(#filter1_d_16_22)">
<path d="M55.2218 16.8312C56.1199 14.0672 60.0301 14.0672 60.9282 16.8312L68.3746 39.7488C68.7762 40.9849 69.9281 41.8218 71.2278 41.8218H95.3249C98.231 41.8218 99.4393 45.5406 97.0882 47.2488L77.5932 61.4128C76.5418 62.1767 76.1018 63.5308 76.5034 64.7669L83.9498 87.6846C84.8479 90.4485 81.6845 92.7469 79.3333 91.0387L59.8384 76.8747C58.7869 76.1108 57.3631 76.1108 56.3117 76.8747L36.8167 91.0387C34.4656 92.7469 31.3021 90.4485 32.2002 87.6846L39.6466 64.7669C40.0482 63.5308 39.6082 62.1767 38.5568 61.4128L19.0618 47.2488C16.7107 45.5406 17.919 41.8218 20.8252 41.8218H44.9223C46.2219 41.8218 47.3738 40.9849 47.7754 39.7488L55.2218 16.8312Z" fill="#8BF3C1"/>
</g>
<defs>
<filter id="filter0_i_16_22" x="9.04155" y="6.7082" width="96.9169" height="96.4698" filterUnits="userSpaceOnUse" color-interpolation-filters="sRGB">
<feFlood flood-opacity="0" result="BackgroundImageFix"/>
<feBlend mode="normal" in="SourceGraphic" in2="BackgroundImageFix" result="shape"/>
<feColorMatrix in="SourceAlpha" type="matrix" values="0 0 0 0 0 0 0 0 0 0 0 0 0 0 0 0 0 0 127 0" result="hardAlpha"/>
<feOffset dy="4"/>
<feGaussianBlur stdDeviation="2"/>
<feComposite in2="hardAlpha" operator="arithmetic" k2="-1" k3="1"/>
<feColorMatrix type="matrix" values="0 0 0 0 0 0 0 0 0 0 0 0 0 0 0 0 0 0 0.25 0"/>
<feBlend mode="normal" in2="shape" result="effect1_innerShadow_16_22"/>
</filter>
<filter id="filter1_d_16_22" x="13.8194" y="14.7582" width="88.5112" height="84.867" filterUnits="userSpaceOnUse" color-interpolation-filters="sRGB">
<feFlood flood-opacity="0" result="BackgroundImageFix"/>
<feColorMatrix in="SourceAlpha" type="matrix" values="0 0 0 0 0 0 0 0 0 0 0 0 0 0 0 0 0 0 127 0" result="hardAlpha"/>
<feOffset dy="4"/>
<feGaussianBlur stdDeviation="2"/>
<feComposite in2="hardAlpha" operator="out"/>
<feColorMatrix type="matrix" values="0 0 0 0 0 0 0 0 0 0 0 0 0 0 0 0 0 0 0.25 0"/>
<feBlend mode="normal" in2="BackgroundImageFix" result="effect1_dropShadow_16_22"/>
<feBlend mode="normal" in="SourceGraphic" in2="effect1_dropShadow_16_22" result="shape"/>
</filter>
</defs>
</svg>
