<svg width="155" height="101" viewBox="0 0 155 101" fill="none" xmlns="http://www.w3.org/2000/svg">
<g filter="url(#filter0_i_15_19)">
<rect x="3" y="1" width="150" height="100" fill="#B5F230"/>
</g>
<rect x="5.5" y="3.5" width="145" height="95" stroke="#7DBA61" stroke-width="5" stroke-linejoin="round"/>
<g filter="url(#filter1_d_15_19)">
<path d="M78.2277 61L4 2H151L78.2277 61Z" fill="#ABF507"/>
</g>
<path d="M84.0093 52.46C83.5503 51.996 83.0036 51.628 82.401 51.3773C81.7984 51.1267 81.1519 50.9984 80.4993 51C79.8466 50.9984 79.2002 51.1267 78.5976 51.3773C77.995 51.628 77.4483 51.996 76.9893 52.46L76.7093 52.75L76.4293 52.47C75.501 51.5418 74.242 51.0204 72.9293 51.0204C71.6166 51.0204 70.3576 51.5418 69.4293 52.47C68.5132 53.4047 68 54.6613 68 55.97C68 57.2788 68.5132 58.5354 69.4293 59.47L76.1993 66.26C76.3399 66.4005 76.5305 66.4794 76.7293 66.4794C76.928 66.4794 77.1187 66.4005 77.2593 66.26L84.0293 59.47C84.9458 58.5323 85.4572 57.2721 85.4535 55.9609C85.4497 54.6497 84.9311 53.3925 84.0093 52.46Z" fill="#C03232"/>
<defs>
<filter id="filter0_i_15_19" x="3" y="1" width="150" height="104" filterUnits="userSpaceOnUse" color-interpolation-filters="sRGB">
<feFlood flood-opacity="0" result="BackgroundImageFix"/>
<feBlend mode="normal" in="SourceGraphic" in2="BackgroundImageFix" result="shape"/>
<feColorMatrix in="SourceAlpha" type="matrix" values="0 0 0 0 0 0 0 0 0 0 0 0 0 0 0 0 0 0 127 0" result="hardAlpha"/>
<feOffset dy="4"/>
<feGaussianBlur stdDeviation="2"/>
<feComposite in2="hardAlpha" operator="arithmetic" k2="-1" k3="1"/>
<feColorMatrix type="matrix" values="0 0 0 0 0 0 0 0 0 0 0 0 0 0 0 0 0 0 0.25 0"/>
<feBlend mode="normal" in2="shape" result="effect1_innerShadow_15_19"/>
</filter>
<filter id="filter1_d_15_19" x="0" y="0" width="155" height="67" filterUnits="userSpaceOnUse" color-interpolation-filters="sRGB">
<feFlood flood-opacity="0" result="BackgroundImageFix"/>
<feColorMatrix in="SourceAlpha" type="matrix" values="0 0 0 0 0 0 0 0 0 0 0 0 0 0 0 0 0 0 127 0" result="hardAlpha"/>
<feOffset dy="2"/>
<feGaussianBlur stdDeviation="2"/>
<feComposite in2="hardAlpha" operator="out"/>
<feColorMatrix type="matrix" values="0 0 0 0 0 0 0 0 0 0 0 0 0 0 0 0 0 0 0.2 0"/>
<feBlend mode="normal" in2="BackgroundImageFix" result="effect1_dropShadow_15_19"/>
<feBlend mode="normal" in="SourceGraphic" in2="effect1_dropShadow_15_19" result="shape"/>
</filter>
</defs>
</svg>
