<svg width="100" height="88" viewBox="0 0 100 88" fill="none" xmlns="http://www.w3.org/2000/svg">
<path d="M3.5 36.5C7.1 -7.5 36.6667 2.5 51 13C81.4 -13 93.6667 14.1667 96 31C97.6 54.2 66.6667 76.3333 51 84.5C18.2 70.5 5.66667 46.6667 3.5 36.5Z" fill="#FF8C00"/>
<path d="M50 13.7944L47.4884 16.2131C47.8138 16.5507 48.2039 16.8192 48.6355 17.0026C49.067 17.186 49.5311 17.2806 50 17.2806C50.4689 17.2806 50.933 17.186 51.3645 17.0026C51.7961 16.8192 52.1862 16.5507 52.5116 16.2131L50 13.7944ZM26.7488 64.5851C26.0334 63.9967 25.1135 63.7166 24.1915 63.8065C23.2695 63.8963 22.421 64.3487 21.8326 65.0642C21.2441 65.7797 20.9641 66.6996 21.0539 67.6216C21.1437 68.5436 21.5962 69.3921 22.3116 69.9805L26.7488 64.5851ZM5.07907 50.5898C5.29896 50.9917 5.59585 51.3464 5.95281 51.6335C6.30976 51.9207 6.71978 52.1347 7.15945 52.2634C7.59913 52.3922 8.05985 52.433 8.51531 52.3836C8.97077 52.3343 9.41205 52.1957 9.81395 51.9758C10.2159 51.756 10.5705 51.4591 10.8577 51.1021C11.1449 50.7452 11.3589 50.3351 11.4876 49.8955C11.6163 49.4558 11.6572 48.9951 11.6078 48.5396C11.5585 48.0841 11.4199 47.6429 11.2 47.241L5.07907 50.5898ZM6.97674 30.7107C6.97674 20.7107 12.6279 12.32 20.3442 8.7898C27.8419 5.36189 37.9163 6.26887 47.4884 16.2131L52.5116 11.3805C41.1628 -0.419505 27.9721 -2.36834 17.4419 2.44561C7.14419 7.15724 0 18.0968 0 30.7107H6.97674ZM33.707 78.9107C36.093 80.7898 38.6512 82.7898 41.2419 84.3061C43.8326 85.8177 46.7907 87.0503 50 87.0503V80.0735C48.5581 80.0735 46.8651 79.5154 44.7628 78.2828C42.6558 77.0549 40.4744 75.3619 38.0279 73.4317L33.707 78.9107ZM66.293 78.9107C72.9256 73.6782 81.4093 67.6875 88.0605 60.1944C94.8372 52.5665 100 43.1107 100 30.7107H93.0233C93.0233 40.9293 88.8372 48.8084 82.8465 55.5619C76.7302 62.4456 69.0233 67.8735 61.9721 73.4317L66.293 78.9107ZM100 30.7107C100 18.0968 92.8605 7.15724 82.5581 2.44561C72.0279 -2.36834 58.8465 -0.419505 47.4884 11.3758L52.5116 16.2131C62.0837 6.27352 72.1581 5.36189 79.6558 8.7898C87.3721 12.32 93.0233 20.7061 93.0233 30.7107H100ZM61.9721 73.4317C59.5256 75.3619 57.3442 77.0549 55.2372 78.2828C53.1349 79.5107 51.4419 80.0735 50 80.0735V87.0503C53.2093 87.0503 56.1674 85.8177 58.7581 84.3061C61.3535 82.7898 63.907 80.7898 66.293 78.9107L61.9721 73.4317ZM38.0279 73.4317C34.3256 70.5154 30.5628 67.7247 26.7488 64.5851L22.3116 69.9805C26.1721 73.1572 30.2558 76.1898 33.707 78.9107L38.0326 73.4317H38.0279ZM11.2 47.2456C8.39817 42.1871 6.94388 36.4932 6.97674 30.7107H0C0 38.3293 1.95349 44.8782 5.07907 50.5898L11.2 47.241V47.2456Z" fill="#FFD5A1"/>
</svg>
